<svg xmlns="http://www.w3.org/2000/svg" viewBox="0 0 1024 683" role="img" aria-label="Évaluation de maturité en cybersécurité : radar, matrice de risques et plan d'action" xmlns:c2pa="http://c2pa.org/manifest"><metadata><c2pa:manifest>AAAWgmp1bWIAAAAeanVtZGMycGEAEQAQgAAAqgA4m3EDYzJwYQAAABZcanVtYgAAAEdqdW1kYzJtYQARABCAAACqADibcQN1cm46YzJwYTphNmY0OWI4MS02OWM5LTQzNTAtYWU2Zi02OTM3ZjhkNmNjNDIAAAADl2p1bWIAAAApanVtZGMyYXMAEQAQgAAAqgA4m3EDYzJwYS5hc3NlcnRpb25zAAAAALxqdW1iAAAARGp1bWRjYm9yABEAEIAAAKoAOJtxE2MycGEuaW5ncmVkaWVudC52MwAAAAAYYzJzaGhkhAWAWwRoGlqLQ2RtdyoAAABwY2JvcqNpZGM6Zm9ybWF0bWltYWdlL3N2Zyt4bWxqaW5zdGFuY2VJRHgseG1wOmlpZDo2NzEzMDUzNC1jNTljLTQ1NjYtOGVhMC0xZjQxZDljZDJjMGVscmVsYXRpb25zaGlwaHBhcmVudE9mAAAB4mp1bWIAAABBanVtZGNib3IAEQAQgAAAqgA4m3ETYzJwYS5hY3Rpb25zLnYyAAAAABhjMnNoH65E9/EohXA8spKJNbyUWgAAAZljYm9yomdhY3Rpb25zgqJmYWN0aW9ua2MycGEub3BlbmVkanBhcmFtZXRlcnOha2luZ3JlZGllbnRzgaJjdXJseC1zZWxmI2p1bWJmPWMycGEuYXNzZXJ0aW9ucy9jMnBhLmluZ3JlZGllbnQudjNkaGFzaFggXaFlmu/XSN/zLdWJuLhIUTSSL73smPGUWFxvmaCDwmykZmFjdGlvbngdY29tLmFudGhyb3BpYy5jbGF1ZGUucHJvdmlkZWRqcGFyYW1ldGVyc6F4H2NvbS5hbnRocm9waWMub3JpZ2luLWNvbmZpZGVuY2VndW5rbm93bmtkZXNjcmlwdGlvbnhmQ2xhdWRlIHByb3ZpZGVkIHRoaXMgZmlsZSBhdCB0aGUgcmVxdWVzdCBvZiBhIHVzZXIgYW5kIG1heSBoYXZlIGNyZWF0ZWQgb3IgbW9kaWZpZWQgdGhlIGZpbGUgY29udGVudHMubXNvZnR3YXJlQWdlbnShZG5hbWVmQ2xhdWRlcmFsbEFjdGlvbnNJbmNsdWRlZPUAAADIanVtYgAAAEBqdW1kY2JvcgARABCAAACqADibcRNjMnBhLmhhc2guZGF0YQAAAAAYYzJzaH6O3VTR5NFrrxIU8Be8ZPMAAACAY2JvcqVjYWxnZnNoYTI1NmNwYWRNAAAAAAAAAAAAAAAAAGRoYXNoWCBQBTKxf8WTISAbRLTWB1T/NF7FUt1ipVcygkLRneaFPmRuYW1lbmp1bWJmIG1hbmlmZXN0amV4Y2x1c2lvbnOBomVzdGFydBjvZmxlbmd0aBkeBAAAAj5qdW1iAAAAJ2p1bWRjMmNsABEAEIAAAKoAOJtxA2MycGEuY2xhaW0udjIAAAACD2Nib3KlY2FsZ2ZzaGEyNTZpc2lnbmF0dXJleE1zZWxmI2p1bWJmPS9jMnBhL3VybjpjMnBhOmE2ZjQ5YjgxLTY5YzktNDM1MC1hZTZmLTY5MzdmOGQ2Y2M0Mi9jMnBhLnNpZ25hdHVyZWppbnN0YW5jZUlEeCx4bXA6aWlkOjQyMDMwY2I2LTcwNGEtNDdhZi04MTczLWIzMGU5OGFkMmU1OXJjcmVhdGVkX2Fzc2VydGlvbnODomN1cmx4LXNlbGYjanVtYmY9YzJwYS5hc3NlcnRpb25zL2MycGEuaW5ncmVkaWVudC52M2RoYXNoWCBdoWWa79dI3/Mt1Ym4uEhRNJIvveyY8ZRYXG+ZoIPCbKJjdXJseCpzZWxmI2p1bWJmPWMycGEuYXNzZXJ0aW9ucy9jMnBhLmFjdGlvbnMudjJkaGFzaFggPCxtIhBE//N6ZgZM7Phn+ii15UZRqYmgDny/DPW+2cCiY3VybHgpc2VsZiNqdW1iZj1jMnBhLmFzc2VydGlvbnMvYzJwYS5oYXNoLmRhdGFkaGFzaFggkmosNrLUgo+8QSwAsqAXev50iwDCQbD8bWOmpTMrU/V0Y2xhaW1fZ2VuZXJhdG9yX2luZm+jZG5hbWVvQW50aHJvcGljIEZpbGVzZ3ZlcnNpb25lMS4wLjBrc3BlY1ZlcnNpb25lMi40LjAAABA4anVtYgAAAChqdW1kYzJjcwARABCAAACqADibcQNjMnBhLnNpZ25hdHVyZQAAABAIY2JvctKEWQISogEmGCFZAgowggIGMIIBjaADAgECAhRA5aAK7sI50L64g/oGQgU9Z1UTADAKBggqhkjOPQQDAzBJMRcwFQYDVQQKEw5BbnRocm9waWMsIFBCQzEuMCwGA1UEAxMlQW50aHJvcGljIENvbnRlbnQgQ3JlZGVudGlhbHMgUm9vdCBDQTAeFw0yNjA4MDcxODQzNTZaFw0yODA4MDYxOTQzNTZaMEQxFzAVBgNVBAoTDkFudGhyb3BpYywgUEJDMSkwJwYDVQQDEyBBbnRocm9waWMgQ2xhdWRlIENvbnRlbnQgU2lnbmluZzBZMBMGByqGSM49AgEGCCqGSM49AwEHA0IABJh6CmvLUBgFFNU0vUKlOVtE6djd17L5SuwX0LemFisBM3dkd/3cyjxFA3Qo5S46fX0/ihY0VZ7mfb9KF703t5OjWDBWMA4GA1UdDwEB/wQEAwIHgDAVBgNVHSUEDjAMBgorBgEEAYPoXgIBMAwGA1UdEwEB/wQCMAAwHwYDVR0jBBgwFoAUzlHiBIFOZFsj+OPEz5o+nMHXXMIwCgYIKoZIzj0EAwMDZwAwZAIwMXMdFJ4BetLLVY7ORuE9noqbbAZOZn/aArXyTwFAZfKrPzxF2vPoJNf1+UCdg1XGAjBwX1zd9WGqYkqmL5SFqw1QySjr1zJfpJM9+1rdDwSPLMOPOjKuiXjoU/pUUeG9RwmhY3BhZFkNngAAAAAAAAAAAAAAAAAAAAAAAAAAAAAAAAAAAAAAAAAAAAAAAAAAAAAAAAAAAAAAAAAAAAAAAAAAAAAAAAAAAAAAAAAAAAAAAAAAAAAAAAAAAAAAAAAAAAAAAAAAAAAAAAAAAAAAAAAAAAAAAAAAAAAAAAAAAAAAAAAAAAAAAAAAAAAAAAAAAAAAAAAAAAAAAAAAAAAAAAAAAAAAAAAAAAAAAAAAAAAAAAAAAAAAAAAAAAAAAAAAAAAAAAAAAAAAAAAAAAAAAAAAAAAAAAAAAAAAAAAAAAAAAAAAAAAAAAAAAAAAAAAAAAAAAAAAAAAAAAAAAAAAAAAAAAAAAAAAAAAAAAAAAAAAAAAAAAAAAAAAAAAAAAAAAAAAAAAAAAAAAAAAAAAAAAAAAAAAAAAAAAAAAAAAAAAAAAAAAAAAAAAAAAAAAAAAAAAAAAAAAAAAAAAAAAAAAAAAAAAAAAAAAAAAAAAAAAAAAAAAAAAAAAAAAAAAAAAAAAAAAAAAAAAAAAAAAAAAAAAAAAAAAAAAAAAAAAAAAAAAAAAAAAAAAAAAAAAAAAAAAAAAAAAAAAAAAAAAAAAAAAAAAAAAAAAAAAAAAAAAAAAAAAAAAAAAAAAAAAAAAAAAAAAAAAAAAAAAAAAAAAAAAAAAAAAAAAAAAAAAAAAAAAAAAAAAAAAAAAAAAAAAAAAAAAAAAAAAAAAAAAAAAAAAAAAAAAAAAAAAAAAAAAAAAAAAAAAAAAAAAAAAAAAAAAAAAAAAAAAAAAAAAAAAAAAAAAAAAAAAAAAAAAAAAAAAAAAAAAAAAAAAAAAAAAAAAAAAAAAAAAAAAAAAAAAAAAAAAAAAAAAAAAAAAAAAAAAAAAAAAAAAAAAAAAAAAAAAAAAAAAAAAAAAAAAAAAAAAAAAAAAAAAAAAAAAAAAAAAAAAAAAAAAAAAAAAAAAAAAAAAAAAAAAAAAAAAAAAAAAAAAAAAAAAAAAAAAAAAAAAAAAAAAAAAAAAAAAAAAAAAAAAAAAAAAAAAAAAAAAAAAAAAAAAAAAAAAAAAAAAAAAAAAAAAAAAAAAAAAAAAAAAAAAAAAAAAAAAAAAAAAAAAAAAAAAAAAAAAAAAAAAAAAAAAAAAAAAAAAAAAAAAAAAAAAAAAAAAAAAAAAAAAAAAAAAAAAAAAAAAAAAAAAAAAAAAAAAAAAAAAAAAAAAAAAAAAAAAAAAAAAAAAAAAAAAAAAAAAAAAAAAAAAAAAAAAAAAAAAAAAAAAAAAAAAAAAAAAAAAAAAAAAAAAAAAAAAAAAAAAAAAAAAAAAAAAAAAAAAAAAAAAAAAAAAAAAAAAAAAAAAAAAAAAAAAAAAAAAAAAAAAAAAAAAAAAAAAAAAAAAAAAAAAAAAAAAAAAAAAAAAAAAAAAAAAAAAAAAAAAAAAAAAAAAAAAAAAAAAAAAAAAAAAAAAAAAAAAAAAAAAAAAAAAAAAAAAAAAAAAAAAAAAAAAAAAAAAAAAAAAAAAAAAAAAAAAAAAAAAAAAAAAAAAAAAAAAAAAAAAAAAAAAAAAAAAAAAAAAAAAAAAAAAAAAAAAAAAAAAAAAAAAAAAAAAAAAAAAAAAAAAAAAAAAAAAAAAAAAAAAAAAAAAAAAAAAAAAAAAAAAAAAAAAAAAAAAAAAAAAAAAAAAAAAAAAAAAAAAAAAAAAAAAAAAAAAAAAAAAAAAAAAAAAAAAAAAAAAAAAAAAAAAAAAAAAAAAAAAAAAAAAAAAAAAAAAAAAAAAAAAAAAAAAAAAAAAAAAAAAAAAAAAAAAAAAAAAAAAAAAAAAAAAAAAAAAAAAAAAAAAAAAAAAAAAAAAAAAAAAAAAAAAAAAAAAAAAAAAAAAAAAAAAAAAAAAAAAAAAAAAAAAAAAAAAAAAAAAAAAAAAAAAAAAAAAAAAAAAAAAAAAAAAAAAAAAAAAAAAAAAAAAAAAAAAAAAAAAAAAAAAAAAAAAAAAAAAAAAAAAAAAAAAAAAAAAAAAAAAAAAAAAAAAAAAAAAAAAAAAAAAAAAAAAAAAAAAAAAAAAAAAAAAAAAAAAAAAAAAAAAAAAAAAAAAAAAAAAAAAAAAAAAAAAAAAAAAAAAAAAAAAAAAAAAAAAAAAAAAAAAAAAAAAAAAAAAAAAAAAAAAAAAAAAAAAAAAAAAAAAAAAAAAAAAAAAAAAAAAAAAAAAAAAAAAAAAAAAAAAAAAAAAAAAAAAAAAAAAAAAAAAAAAAAAAAAAAAAAAAAAAAAAAAAAAAAAAAAAAAAAAAAAAAAAAAAAAAAAAAAAAAAAAAAAAAAAAAAAAAAAAAAAAAAAAAAAAAAAAAAAAAAAAAAAAAAAAAAAAAAAAAAAAAAAAAAAAAAAAAAAAAAAAAAAAAAAAAAAAAAAAAAAAAAAAAAAAAAAAAAAAAAAAAAAAAAAAAAAAAAAAAAAAAAAAAAAAAAAAAAAAAAAAAAAAAAAAAAAAAAAAAAAAAAAAAAAAAAAAAAAAAAAAAAAAAAAAAAAAAAAAAAAAAAAAAAAAAAAAAAAAAAAAAAAAAAAAAAAAAAAAAAAAAAAAAAAAAAAAAAAAAAAAAAAAAAAAAAAAAAAAAAAAAAAAAAAAAAAAAAAAAAAAAAAAAAAAAAAAAAAAAAAAAAAAAAAAAAAAAAAAAAAAAAAAAAAAAAAAAAAAAAAAAAAAAAAAAAAAAAAAAAAAAAAAAAAAAAAAAAAAAAAAAAAAAAAAAAAAAAAAAAAAAAAAAAAAAAAAAAAAAAAAAAAAAAAAAAAAAAAAAAAAAAAAAAAAAAAAAAAAAAAAAAAAAAAAAAAAAAAAAAAAAAAAAAAAAAAAAAAAAAAAAAAAAAAAAAAAAAAAAAAAAAAAAAAAAAAAAAAAAAAAAAAAAAAAAAAAAAAAAAAAAAAAAAAAAAAAAAAAAAAAAAAAAAAAAAAAAAAAAAAAAAAAAAAAAAAAAAAAAAAAAAAAAAAAAAAAAAAAAAAAAAAAAAAAAAAAAAAAAAAAAAAAAAAAAAAAAAAAAAAAAAAAAAAAAAAAAAAAAAAAAAAAAAAAAAAAAAAAAAAAAAAAAAAAAAAAAAAAAAAAAAAAAAAAAAAAAAAAAAAAAAAAAAAAAAAAAAAAAAAAAAAAAAAAAAAAAAAAAAAAAAAAAAAAAAAAAAAAAAAAAAAAAAAAAAAAAAAAAAAAAAAAAAAAAAAAAAAAAAAAAAAAAAAAAAAAAAAAAAAAAAAAAAAAAAAAAAAAAAAAAAAAAAAAAAAAAAAAAAAAAAAAAAAAAAAAAAAAAAAAAAAAAAAAAAAAAAAAAAAAAAAAAAAAAAAAAAAAAAAAAAAAAAAAAAAAAAAAAAAAAAAAAAAAAAAAAAAAAAAAAAAAAAAAAAAAAAAAAAAAAAAAAAAAAAAAAAAAAAAAAAAAAAAAAAAAAAAAAAAAAAAAAAAAAAAAAAAAAAAAAAAAAAAAAAAAAAAAAAAAAAAAAAAAAAAAAAAAAAAAAAAAAAAAAAAAAAAAAAAAAAAAAAAAAAAAAAAAAAAAAAAAAAAAAAAAAAAAAAAAAAAAAAAAAAAAAAAAAAAAAAAAAAAAAAAAAAAAAAAAAAAAAAAAAAAAAAAAAAAAAAAAAAAAAAAAAAAAAAAAAAAAAAAAAAAAAAAAAAAAAAAAAAAAAAAAAAAAAAAAAAAAAAAAAAAAAAAAAAAAAAAAAAAAAAAAAAAAAAAAAAAAAAAAAAAAAAAAAAAAAAAAAAAAAAAAAAAAAAAAAAAAAAAAAAAAAAAAAAAAAAAAAAAAAAAAAAAAAAAAAAAAAAAAAAAAAAAAAAAAAAAAAAAAAAAAAAAAAAAAAAAAAAAAAAAAAAAAAAAAAAAAAAAAAAAAAAAAAAAAAAAAAAAAAAAAAAAAAAAAAAAAAAAAAAAAAAAAAAAAAAAAAAAAAAAAAAAAAAAAAAAAAAAAAAAAAAAAAAAAAAAAAAAAAAAAAAAAAAAAAAAAAAAAAAAAAAAAAAAAAAAAAAAAAAAAAAAAAAAAAAAAAAAAAAAAAAAAAAAAAAAAAAAAAAAAAAAAAAAAAAAAAAAAAAAAAAAAAAAAAAAAAAAAAAAAAAAAAAAAAAAAAAAAAAAAAAAAAAAAAAAAAAAAAAAAAAAAAAAAAAAAAAAAAAAAAAAAAAAAAAAAAAAAAAAAAAAAAAAAAAAAAAAAAAAAAAAAAAAAAAAAAAAAAAAAAAAAAAAAAAAAAAAAAAAAAAAAAAAAAAAAAAAAAAAAAAAAAAAAAAAAAAAAAAAAAAAAAAAAAAAAAAAAAAAAAAAAAAAAAAAAAAAAAAAAAAAAAAAAAAAAAAAAAAAAAAAAAAAAAAAAAAAAAAAAAAAAAAAAAAAAAAAAAAAAAAAAAAAAAAAAAAAAAAAAAAAAAAAAAAAAAAAAAAAAAAAAAAAAAAAAAAAAAAAAAAAAAAAAAAAAAAAAAAAAAAAAAAAAAAAAAAAAAAAAAAAAAAAAAAAAAAAAAAAAAAAAAAAAAAAAAAAAAAAAAAAAAAAAAAAAAAAAAAAAAAAAAAAAAAAAAAAAAAAAAAAAAAAAAAAAAAAAAAAAAAAAAAAAAAAAAAAAAAAAAAAAAAAAAAAAAAAAAAAAAAAAAAAAAAAAAAAAAAAAAAAAAAAAAAAAAAAAAAAAAAAAAAAAAAAAAAAAAAAAAAAAAAAAAAAAAAAAAAAAAAAAAPZYQGgRg+Pli3NQBCt2F6Ph8+udkyBfVBAUcdqZZrGdVsdgtTVwdF1qzvdzoxLPHdIAnRypkKIUkjyufY9Bxak7OPw=</c2pa:manifest></metadata>
<rect width="1024" height="683" fill="#F3F3F0"/>
<defs><pattern id="dots" width="32" height="32" patternUnits="userSpaceOnUse"><circle cx="2" cy="2" r="1.6" fill="#D6D6D1"/></pattern></defs>
<rect width="1024" height="683" fill="url(#dots)"/>
<!-- monitor -->
<rect x="90" y="60" width="700" height="440" rx="20" fill="#4A4A46"/>
<rect x="110" y="80" width="660" height="400" rx="10" fill="#F7FAFC"/>
<rect x="400" y="500" width="80" height="60" fill="#6B6B66"/>
<rect x="330" y="556" width="220" height="16" rx="8" fill="#6B6B66"/>
<!-- screen header -->
<rect x="110" y="80" width="660" height="44" rx="10" fill="#fff"/>
<rect x="110" y="114" width="660" height="10" fill="#fff"/>
<circle cx="136" cy="102" r="6" fill="#C8553D"/><circle cx="156" cy="102" r="6" fill="#E0A33B"/><circle cx="176" cy="102" r="6" fill="#72B43C"/>
<text x="204" y="107" font-family="'Plus Jakarta Sans','Segoe UI',Arial,sans-serif" font-size="14" font-weight="700" fill="#4A4A46">Évaluation de maturité — NIST CSF 2.0</text>
<!-- radar panel -->
<rect x="130" y="140" width="330" height="320" rx="12" fill="#fff" stroke="#E3E3DF"/>
<polygon points="295.0,200.0 385.9,252.5 385.9,357.5 295.0,410.0 204.1,357.5 204.1,252.5" fill="none" stroke="#E3E3DF" stroke-width="2"/><polygon points="295.0,235.7 355.0,270.4 355.0,339.6 295.0,374.3 235.0,339.7 235.0,270.4" fill="none" stroke="#E3E3DF" stroke-width="2"/><polygon points="295.0,270.4 325.0,287.7 325.0,322.3 295.0,339.6 265.0,322.3 265.0,287.7" fill="none" stroke="#E3E3DF" stroke-width="2"/><line x1="295" y1="305" x2="295.0" y2="200.0" stroke="#E3E3DF" stroke-width="2"/><line x1="295" y1="305" x2="385.9" y2="252.5" stroke="#E3E3DF" stroke-width="2"/><line x1="295" y1="305" x2="385.9" y2="357.5" stroke="#E3E3DF" stroke-width="2"/><line x1="295" y1="305" x2="295.0" y2="410.0" stroke="#E3E3DF" stroke-width="2"/><line x1="295" y1="305" x2="204.1" y2="357.5" stroke="#E3E3DF" stroke-width="2"/><line x1="295" y1="305" x2="204.1" y2="252.5" stroke="#E3E3DF" stroke-width="2"/><polygon points="295.0,210.5 376.8,257.8 376.8,352.2 295.0,399.5 213.2,352.3 213.2,257.8" fill="none" stroke="#6B6B66" stroke-width="2.5" stroke-dasharray="6 5"/><polygon points="295.0,247.2 358.7,268.2 351.4,337.5 295.0,347.0 251.4,330.2 263.2,286.6" fill="#5E9E2F" fill-opacity="0.25" stroke="#5E9E2F" stroke-width="3"/><circle cx="295.0" cy="247.2" r="5" fill="#5E9E2F"/><circle cx="358.7" cy="268.2" r="5" fill="#5E9E2F"/><circle cx="351.4" cy="337.5" r="5" fill="#5E9E2F"/><circle cx="295.0" cy="347.0" r="5" fill="#5E9E2F"/><circle cx="251.4" cy="330.2" r="5" fill="#5E9E2F"/><circle cx="263.2" cy="286.6" r="5" fill="#5E9E2F"/>
<text x="295" y="182" text-anchor="middle" font-family="'Plus Jakarta Sans','Segoe UI',Arial,sans-serif" font-size="13" font-weight="600" fill="#6B6B66">Gouverner</text><text x="405" y="246" text-anchor="start" font-family="'Plus Jakarta Sans','Segoe UI',Arial,sans-serif" font-size="13" font-weight="600" fill="#6B6B66">Identifier</text><text x="405" y="372" text-anchor="start" font-family="'Plus Jakarta Sans','Segoe UI',Arial,sans-serif" font-size="13" font-weight="600" fill="#6B6B66">Protéger</text><text x="295" y="436" text-anchor="middle" font-family="'Plus Jakarta Sans','Segoe UI',Arial,sans-serif" font-size="13" font-weight="600" fill="#6B6B66">Détecter</text><text x="185" y="373" text-anchor="end" font-family="'Plus Jakarta Sans','Segoe UI',Arial,sans-serif" font-size="13" font-weight="600" fill="#6B6B66">Répondre</text><text x="185" y="246" text-anchor="end" font-family="'Plus Jakarta Sans','Segoe UI',Arial,sans-serif" font-size="13" font-weight="600" fill="#6B6B66">Rétablir</text>
<!-- heatmap panel -->
<rect x="480" y="140" width="270" height="200" rx="12" fill="#fff" stroke="#E3E3DF"/>
<text x="500" y="168" font-family="'Plus Jakarta Sans','Segoe UI',Arial,sans-serif" font-size="13" font-weight="700" fill="#4A4A46">Risques résiduels</text>
<rect x="500" y="182" width="24" height="24" rx="4" fill="#72B43C" opacity="0.87"/><rect x="530" y="182" width="24" height="24" rx="4" fill="#72B43C" opacity="0.35"/><rect x="560" y="182" width="24" height="24" rx="4" fill="#E0A33B" opacity="0.48"/><rect x="590" y="182" width="24" height="24" rx="4" fill="#E0A33B" opacity="0.61"/><rect x="620" y="182" width="24" height="24" rx="4" fill="#C8553D" opacity="0.74"/><rect x="500" y="212" width="24" height="24" rx="4" fill="#72B43C" opacity="0.74"/><rect x="530" y="212" width="24" height="24" rx="4" fill="#72B43C" opacity="0.87"/><rect x="560" y="212" width="24" height="24" rx="4" fill="#E0A33B" opacity="0.35"/><rect x="590" y="212" width="24" height="24" rx="4" fill="#C8553D" opacity="0.48"/><rect x="620" y="212" width="24" height="24" rx="4" fill="#C8553D" opacity="0.61"/><rect x="500" y="242" width="24" height="24" rx="4" fill="#72B43C" opacity="0.61"/><rect x="530" y="242" width="24" height="24" rx="4" fill="#E0A33B" opacity="0.74"/><rect x="560" y="242" width="24" height="24" rx="4" fill="#E0A33B" opacity="0.87"/><rect x="590" y="242" width="24" height="24" rx="4" fill="#C8553D" opacity="0.35"/><rect x="620" y="242" width="24" height="24" rx="4" fill="#C8553D" opacity="0.48"/><rect x="500" y="272" width="24" height="24" rx="4" fill="#72B43C" opacity="0.48"/><rect x="530" y="272" width="24" height="24" rx="4" fill="#72B43C" opacity="0.61"/><rect x="560" y="272" width="24" height="24" rx="4" fill="#E0A33B" opacity="0.74"/><rect x="590" y="272" width="24" height="24" rx="4" fill="#E0A33B" opacity="0.87"/><rect x="620" y="272" width="24" height="24" rx="4" fill="#C8553D" opacity="0.35"/><rect x="500" y="302" width="24" height="24" rx="4" fill="#72B43C" opacity="0.35"/><rect x="530" y="302" width="24" height="24" rx="4" fill="#72B43C" opacity="0.48"/><rect x="560" y="302" width="24" height="24" rx="4" fill="#72B43C" opacity="0.61"/><rect x="590" y="302" width="24" height="24" rx="4" fill="#E0A33B" opacity="0.74"/><rect x="620" y="302" width="24" height="24" rx="4" fill="#E0A33B" opacity="0.87"/>
<rect x="660" y="182" width="70" height="8" rx="4" fill="#E3E3DF"/><rect x="660" y="200" width="54" height="8" rx="4" fill="#E3E3DF"/><rect x="660" y="218" width="62" height="8" rx="4" fill="#E3E3DF"/>
<!-- bars panel -->
<rect x="480" y="352" width="270" height="108" rx="12" fill="#fff" stroke="#E3E3DF"/>
<text x="500" y="378" font-family="'Plus Jakarta Sans','Segoe UI',Arial,sans-serif" font-size="13" font-weight="700" fill="#4A4A46">Plan de traitement</text>
<rect x="500" y="392" width="230" height="10" rx="5" fill="#EFEFEC"/><rect x="500" y="392" width="190" height="10" rx="5" fill="#5E9E2F"/><rect x="500" y="410" width="230" height="10" rx="5" fill="#EFEFEC"/><rect x="500" y="410" width="130" height="10" rx="5" fill="#6B6B66"/><rect x="500" y="428" width="230" height="10" rx="5" fill="#EFEFEC"/><rect x="500" y="428" width="80" height="10" rx="5" fill="#E0A33B"/>
<!-- clipboard -->
<g transform="rotate(8 850 430)">
  <rect x="740" y="270" width="210" height="290" rx="16" fill="#8A6A4A"/>
  <rect x="756" y="296" width="178" height="250" rx="8" fill="#fff"/>
  <rect x="805" y="258" width="80" height="34" rx="10" fill="#6B6B66"/>
  <g transform="translate(772 322)"><rect width="22" height="22" rx="6" fill="#5E9E2F"/><path d="M5 11 L10 16 L17 6" fill="none" stroke="#fff" stroke-width="3" stroke-linecap="round" stroke-linejoin="round"/><rect x="36" y="4" width="110" height="7" rx="3.5" fill="#E3E3DF"/><rect x="36" y="15" width="61" height="5" rx="2.5" fill="#EFEFEC"/></g><g transform="translate(772 366)"><rect width="22" height="22" rx="6" fill="#5E9E2F"/><path d="M5 11 L10 16 L17 6" fill="none" stroke="#fff" stroke-width="3" stroke-linecap="round" stroke-linejoin="round"/><rect x="36" y="4" width="90" height="7" rx="3.5" fill="#E3E3DF"/><rect x="36" y="15" width="50" height="5" rx="2.5" fill="#EFEFEC"/></g><g transform="translate(772 410)"><rect width="22" height="22" rx="6" fill="#5E9E2F"/><path d="M5 11 L10 16 L17 6" fill="none" stroke="#fff" stroke-width="3" stroke-linecap="round" stroke-linejoin="round"/><rect x="36" y="4" width="120" height="7" rx="3.5" fill="#E3E3DF"/><rect x="36" y="15" width="66" height="5" rx="2.5" fill="#EFEFEC"/></g><g transform="translate(772 454)"><rect width="22" height="22" rx="6" fill="#fff" stroke="#5E9E2F" stroke-width="2"/><rect x="36" y="4" width="80" height="7" rx="3.5" fill="#E3E3DF"/><rect x="36" y="15" width="44" height="5" rx="2.5" fill="#EFEFEC"/></g><g transform="translate(772 498)"><rect width="22" height="22" rx="6" fill="#fff" stroke="#5E9E2F" stroke-width="2"/><rect x="36" y="4" width="100" height="7" rx="3.5" fill="#E3E3DF"/><rect x="36" y="15" width="55" height="5" rx="2.5" fill="#EFEFEC"/></g>
</g>
<!-- coffee -->
<g transform="translate(120 590)"><rect width="46" height="50" rx="8" fill="#fff" stroke="#E3E3DF" stroke-width="2"/><path d="M46 14 C62 14 62 36 46 36" fill="none" stroke="#E3E3DF" stroke-width="5"/></g>
<!-- pen -->
<rect x="620" y="600" width="170" height="12" rx="6" fill="#5E9E2F" transform="rotate(-12 700 606)"/>
</svg>